<svg xmlns="http://www.w3.org/2000/svg" width="595.28" height="143.802" viewBox="0 0 595.28 143.802"><path class="primary" fill="#344D5C" d="M319.94 46.082v20.532H302.5V46.082h-14.79v56.564h14.79V79.944h17.44v22.702h14.79V46.082h-14.79zM345.72 74.45c0 39.17 57.998 39.17 57.998 0 0-39.108-57.997-39.108-57.997 0zm14.853 0c0-20.377 28.354-20.377 28.354 0 0 20.52-28.354 20.52-28.354 0zM445.07 46.082v37.49c0 4.615-4.363 6.876-8.556 6.876-4.207 0-8.65-2.26-8.65-6.877V46.083h-13.8v37.74c0 12.435 10.895 19.626 22.45 19.626 11.635 0 22.53-7.19 22.53-19.627V46.083H445.07zM492.502 69.032c-5.104-.564-9.295-1.444-8.98-5.734.485-6.713 15.683-7.357 15.683.157h13.722c.332-24.407-43.614-24.407-43.127 0 .156 12.282 8.242 16.49 20.52 17.37 5.652.33 10.33.972 10.33 4.928 0 6.626-17.693 6.783-17.693-.392h-13.973c-.313 24.87 45.736 24.226 45.736.472 0-14.13-10.992-15.59-22.218-16.8z"/><g fill="#45b29d"><path class="primary" d="M48.406 89.632v-43.55h-14.54v56.564h35.06V89.632h-20.52zM100.22 89.96V58.69h6.625V46.082H79.307v12.606h6.61V89.96H78.74v12.686h28.67V89.96h-7.19zM169.206 70.414h-26.738v12.513h12.042c-2.59 5.416-6.312 6.956-12.12 6.956-8.558 0-14.053-6.14-14.053-15.513 0-8.65 4.93-15.776 14.052-15.776 5.73 0 9.45 1.947 11.79 6.81h14.224c-2.747-14.08-14.632-19.966-26.015-20.045-14.382 0-28.92 9.686-29 29.01.08 19.296 14.618 28.92 29 28.92 10.424 0 21.163-4.52 25.198-16.328 1.947-5.48 1.947-10.897 1.618-16.548zM212.993 46.082v20.532H195.55V46.082h-14.79v56.564h14.79V79.944h17.442v22.702h14.774V46.082h-14.773zM236.653 46.082v12.92h13.895v43.645h14.303V59.003h13.817v-12.92h-42.014z"/></g><path class="primary" fill="#344D5C" d="M525.262 46.082h35.296v12.92h-35.296zM525.262 68.333h35.296v12.92h-35.296zM525.262 89.757h35.296v12.92h-35.296z"/><path class="primary" fill="#45b29d" d="M524.407 36.53L542.91 18.03l18.503 18.503z"/></svg>